mastitorrents.com
 
http://mastitorrents.com/forums/index.php

Brazzers Live 8

December 14th, 2010 Brazzers Live Show.

Pornstars: Jewels Jade, Francesca Le, Shay Sights & Veronica Avluv 

Format : MPEG-4 
Format profile : Base Media / Version 2 
Codec ID : mp42 
File size : 2.28 GiB 
Duration : 1h 44mn 
Overall bit rate : 3 127 Kbps 

Video 
ID : 1 
Format : AVC 
Format/Info : Advanced Video Codec 
Format profile : Main@L1.3 
Format settings, CABAC : Yes 
Format settings, ReFrames : 2 frames 
Format settings, GOP : M=1, N=18 
Codec ID : avc1 
Codec ID/Info : Advanced Video Coding 
Duration : 1h 44mn 
Bit rate mode : Variable 
Bit rate : 2 993 Kbps 
Width : 856 pixels 
Height : 480 pixels 
Display aspect ratio : 16:9 
Frame rate mode : Constant 
Frame rate : 29.970 fps 
Color space : YUV 
Chroma subsampling : 4:2:0 
Bit depth : 8 bits 
Scan type : Progressive 
Bits/(Pixel*Frame) : 0.243 
Stream size : 2.18 GiB (96%) 
Language : English 


Audio 
ID : 2 
Format : AAC 
Format/Info : Advanced Audio Codec 
Format version : Version 4 
Format profile : LC 
Codec ID : 40 
Duration : 1h 44mn 
Bit rate mode : Constant 
Bit rate : 128 Kbps 
Channel(s) : 2 channels 
Channel positions : Front: L R 
Sampling rate : 48.0 KHz 
Compression mode : Lossy 
Stream size : 93.5 MiB (4%) 
Language : English